<?xml version="1.0" encoding="utf-8"?>
<!-- Generator: Adobe Illustrator 27.0.0, SVG Export Plug-In . SVG Version: 6.00 Build 0)  -->
<svg version="1.1" id="Layer_1" xmlns="http://www.w3.org/2000/svg" xmlns:xlink="http://www.w3.org/1999/xlink" x="0px" y="0px"
	 viewBox="0 0 341 92.5" style="enable-background:new 0 0 341 92.5;" xml:space="preserve">
<style type="text/css">
	.st0{fill:#002351;}
	.st1{fill:#AD0014;}
</style>
<g>
	<g>
		<path class="st0" d="M84.7,42.8l-1.6-2V65H72.3l-7.8-19.6V0h24.9c16.6,0,26,6.7,26,19.8c0,10.5-6.6,15.7-12.7,17.9v0.2
			c4.3,5.9,6.7,9.9,12.5,16.9l-0.2,0.4l-5.6,9.9h-8.5L84.7,42.8z M89,28.3c5.5,0,8.1-2.7,8.1-7.2c0-4.9-2.5-7.3-8.7-7.3h-5.3v14.5
			L89,28.3L89,28.3z"/>
		<path class="st1" d="M304,42.8l-1.6-2V65h-10.8l-7.8-19.6V0h24.9c16.6,0,26,6.7,26,19.8c0,10.5-6.6,15.7-12.7,17.9v0.2
			c4.3,5.9,13.3,19.7,19.1,26.8l-0.2,0.4l-12.2,0h-8.5L304,42.8z M308.3,28.3c5.5,0,8.1-2.7,8.1-7.2c0-4.9-2.5-7.3-8.7-7.3h-5.3
			v14.5L308.3,28.3L308.3,28.3z"/>
		<path class="st0" d="M113.9,64.9l10.4-17.8c1.5,0.9,5.9,4.3,12.6,4.3c5.5,0,8-1.8,8-4.8c0-4.1-6.4-4.4-14.1-8.3
			c-8-4-13-9.5-13-20.2c0-11.6,9.6-19.2,22.5-19.2h28.1l-7.6,18.5c-2.4-4.7-15.8-7.4-20.2-6.2c-4.3,1.1-5.7,4.8-4.4,7.8
			c1.6,3.7,4.1,3.8,11.2,6.9c8.6,3.8,15.3,8.1,15.3,19.6c0,13.1-9.1,19.4-25,19.4L113.9,64.9L113.9,64.9z"/>
		<polygon class="st1" points="169.6,5.2 169.6,65 188.3,65 188.3,37 206.1,65 214.8,65 219.6,52.4 205,29.8 227.2,0 207,0 
			188.3,25.6 188.3,-1.2 172.3,-1.2 		"/>
		<path class="st1" d="M259.2,41.3L255.7,31c-2-5.7-2.9-10.9-3-11.3h-0.2c-0.1,0.4-1.2,5.8-3,11.3L246,41.3H259.2z M244.1,0h17.9
			l25.8,65h-20.3l-3.1-9.2h-23.1l-3,9.2h-18.8L244.1,0z"/>
		<path class="st0" d="M42.6,0H27.2h-2.4L0,65h18.8l3-9.2h18.2H45l3.1,9.2h20.3L42.6,0z M26.7,41.3L29.8,31c2-6.6,3.2-10.9,3.3-11.3
			h0.2l6.5,21.6H26.7z"/>
	</g>
	<g>
		<path class="st0" d="M52.6,89.8h-6.2l-1,2.6h-3.1L48,77.8h3l5.7,14.7h-3.1L52.6,89.8z M51.6,87.2l-2.2-5.9l-2.2,5.9H51.6z"/>
		<path class="st0" d="M57.5,77.8h2.8v14.7h-2.8V77.8z"/>
		<path class="st0" d="M67,87.6h-2.2v4.9H62V77.8h5.1c3.1,0,5.2,2,5.2,5c0,2.1-1,3.6-2.7,4.4l3.4,5.3h-3L67,87.6z M64.8,85.2h2
			c1.5,0,2.6-0.7,2.6-2.4c0-1.7-1-2.4-2.6-2.4h-2V85.2z"/>
		<path class="st0" d="M87.2,88.1c0,2.6-1.8,4.3-5.1,4.3h-5.2V77.8h5.4c2.5,0,4,1.5,4,3.5c0,1.5-0.9,2.5-1.9,3
			C85.8,84.7,87.2,85.9,87.2,88.1z M79.7,80.3v3.2h2c1.2,0,1.9-0.7,1.9-1.6c0-1-0.6-1.6-1.9-1.6H79.7z M84.4,87.9
			c0-1.3-0.8-2.2-2.5-2.2h-2.2V90h2.2C83.6,90,84.4,89.2,84.4,87.9z"/>
		<path class="st0" d="M93.4,87.6h-2.2v4.9h-2.8V77.8h5.1c3.1,0,5.2,2,5.2,5c0,2.1-1,3.6-2.7,4.4l3.4,5.3h-3L93.4,87.6z M91.2,85.2
			h2c1.5,0,2.6-0.7,2.6-2.4c0-1.7-1-2.4-2.6-2.4h-2V85.2z"/>
		<path class="st0" d="M109.9,89.8h-6.2l-1,2.6h-3.1l5.6-14.7h3l5.7,14.7h-3.1L109.9,89.8z M109,87.2l-2.2-5.9l-2.2,5.9H109z"/>
		<path class="st0" d="M119.1,86.5l-1.4,1.7v4.2h-2.8V77.8h2.8v6.7l5.5-6.7h3.2l-5.5,6.7l6,8h-3.1L119.1,86.5z"/>
		<path class="st0" d="M136.2,89.9v2.6h-8.5V77.8h8.3v2.6h-5.5v3.4h4.6v2.6h-4.6v3.5H136.2z"/>
		<path class="st0" d="M152.9,83.9l-3.2,4.6l4.2,4h-3.7l-2-1.9c-1,1.3-2.1,2.1-4.1,2.1c-2.8,0-4.5-1.8-4.5-4c0-1.3,0.5-2.5,2.7-3.8
			c-1-1.1-1.4-2-1.4-3.2c0-1.8,1.3-3.5,3.9-3.5s3.7,1.7,3.7,3.4c0,1.5-0.8,2.5-2.4,3.5l2,1.9l2-3.1H152.9z M146.6,89l-2.8-2.8
			c-1.1,0.8-1.3,1.4-1.3,2.1c0,0.9,0.6,1.8,1.9,1.8C145.3,90.2,145.9,89.9,146.6,89z M143.5,81.5c0,0.7,0.3,1.2,1.1,2.1
			c1-0.7,1.5-1.3,1.5-2.1c0-0.7-0.3-1.4-1.3-1.4C144,80.1,143.5,80.7,143.5,81.5z"/>
		<path class="st0" d="M155.8,85.1c0-4.6,3.5-7.5,7.6-7.5c2,0,4.4,0.7,6,3.2l-2.1,1.4c-1-1.4-2.4-1.9-3.8-1.9
			c-2.6,0-4.8,1.9-4.8,4.9c0,3,2.2,4.9,4.8,4.9c1.5,0,2.8-0.6,3.8-1.9l2.1,1.4c-1.5,2.5-3.9,3.2-6,3.2
			C159.2,92.7,155.8,89.7,155.8,85.1z"/>
		<path class="st0" d="M179.1,89.9v2.6h-8.5V77.8h2.8v12L179.1,89.9L179.1,89.9z"/>
		<path class="st0" d="M180,87v-9.2h2.8V87c0,2.3,1.4,3,2.7,3c1.3,0,2.7-0.7,2.7-3v-9.2h2.8V87c0,3.7-2.5,5.7-5.5,5.7
			C182.4,92.7,180,90.7,180,87z"/>
		<path class="st0" d="M202.1,80.4h-3.5v12.1h-2.8V80.4h-3.5v-2.6h9.9L202.1,80.4L202.1,80.4z"/>
		<path class="st0" d="M202,85.1c0-4.6,3.5-7.5,7.5-7.5c2,0,4.4,0.7,6,3.2l-2.1,1.4c-1-1.4-2.4-1.9-3.8-1.9c-2.6,0-4.8,1.9-4.8,4.9
			c0,3,2.2,4.9,4.8,4.9c1.5,0,2.8-0.6,3.8-1.9l2.1,1.4c-1.5,2.5-3.9,3.2-6,3.2C205.4,92.7,202,89.7,202,85.1z"/>
		<path class="st0" d="M228.4,77.8v14.7h-2.8v-6h-6v6h-2.8V77.8h2.8v6h6v-6H228.4z"/>
		<path class="st0" d="M232.8,89l2.3-1c0.4,1.1,1.3,2.1,2.8,2.1c1.2,0,2.1-0.6,2.1-1.9c0-1.1-0.6-1.5-2.1-2.1l-0.9-0.4
			c-2-0.8-3.6-1.9-3.6-4.1c0-2.5,2-4,4.5-4c2.5,0,4,1.5,4.7,3.1l-2.1,1.2c-0.6-1.2-1.4-1.8-2.5-1.8c-1,0-1.8,0.5-1.8,1.5
			c0,0.8,0.4,1.4,2,2l1,0.4c2.6,1,3.8,2.2,3.8,4.3c0,3-2.6,4.4-5.1,4.4C235.4,92.7,233.3,91.2,232.8,89z"/>
		<path class="st0" d="M247.9,86.6l-5.3-8.8h3.2l3.5,6.1l3.5-6.1h3.2l-5.3,8.8v5.9h-2.8L247.9,86.6L247.9,86.6z"/>
		<path class="st0" d="M255.5,89l2.3-1c0.4,1.1,1.3,2.1,2.8,2.1c1.2,0,2.1-0.6,2.1-1.9c0-1.1-0.6-1.5-2.1-2.1l-0.9-0.4
			c-2-0.8-3.6-1.9-3.6-4.1c0-2.5,2-4,4.5-4c2.5,0,4,1.5,4.7,3.1l-2.1,1.2c-0.6-1.2-1.4-1.8-2.5-1.8c-1,0-1.8,0.5-1.8,1.5
			c0,0.8,0.4,1.4,2,2l1,0.4c2.6,1,3.8,2.2,3.8,4.3c0,3-2.6,4.4-5.1,4.4C258.1,92.7,256,91.2,255.5,89z"/>
		<path class="st0" d="M275.6,80.4h-3.5v12.1h-2.8V80.4h-3.5v-2.6h9.9L275.6,80.4L275.6,80.4z"/>
		<path class="st0" d="M285.2,89.9v2.6h-8.5V77.8h8.3v2.6h-5.5v3.4h4.6v2.6h-4.6v3.5H285.2z"/>
		<path class="st0" d="M286.6,77.8h3.1l4.8,11l4.8-11h3.1v14.7h-2.8v-9.2h-0.1l-3.9,9.2h-2.1l-3.9-9.2h-0.1v9.2h-2.8L286.6,77.8
			L286.6,77.8z"/>
	</g>
</g>
</svg>
