<svg xmlns="http://www.w3.org/2000/svg" xmlns:xlink="http://www.w3.org/1999/xlink" width="219.071" height="61.035" viewBox="0 0 219.071 61.035">
  <defs>
    <clipPath id="clip-path">
      <rect id="Rectangle_1224" data-name="Rectangle 1224" width="219.071" height="61.035" fill="none"/>
    </clipPath>
  </defs>
  <g id="LOGO" transform="translate(0 0)">
    <path id="Path_1" data-name="Path 1" d="M125.615,35.122h.092l7.3-20.3h10.4L129.446,47.665H118.864l-.41-19.064h-.09l-7.116,19.064H100.666L98.295,14.826h10.4l.091,20.3h.091l7.525-20.3H125.3Z" transform="translate(-32.393 -4.886)" fill="#313133"/>
    <g id="Group_2" data-name="Group 2" transform="translate(0 0)">
      <g id="Group_1" data-name="Group 1" clip-path="url(#clip-path)">
        <path id="Path_2" data-name="Path 2" d="M173.583,51.543V48.989a14.048,14.048,0,0,1-9.578,3.238c-4.516,0-8.118-2.236-7.251-7.207,1.915-10.855,18.06-5.929,18.836-10.4.319-1.733-1.733-1.96-2.737-1.96-1.322,0-3.147.274-3.74,2.326h-9.122c.912-5.063,5.016-8.027,14.458-8.027,11.311,0,11.266,4.2,10.262,9.9L182.75,48.031c-.274,1.368-.318,2.052.73,3.056l-.092.456Zm.912-10.582c-3.375,1.506-7.343.776-7.89,3.877-.228,1.185.774,2.007,2.645,2.007,3.329,0,4.881-2.6,5.245-5.884" transform="translate(-51.615 -8.884)" fill="#313133"/>
        <path id="Path_3" data-name="Path 3" d="M208.059,43.978a2.225,2.225,0,0,0,.593,2.189,3.331,3.331,0,0,0,2.19.73c1.459,0,3.1-.456,3.421-2.144.684-3.831-14.5-.775-12.861-10.033,1.049-6.111,7.707-7.89,12.678-7.89,5.2,0,11.083,1.185,10.536,7.524H216a2.132,2.132,0,0,0-.593-1.733,2.668,2.668,0,0,0-1.825-.593c-1.641,0-2.782.5-3.01,1.688-.546,3.329,14.915,1.094,13.364,10.033-.912,4.973-5.61,8.347-14.366,8.347-5.474,0-11.174-1.688-10.536-8.119Z" transform="translate(-65.573 -8.842)" fill="#313133"/>
        <path id="Path_4" data-name="Path 4" d="M247.463,27.5l-.593,3.558h.091a10,10,0,0,1,8.21-4.241c7.206,0,9.624,5.883,8.483,12.451-1.642,9.4-8.119,12.816-13.454,12.816a6.008,6.008,0,0,1-5.565-3.056l-1.824,10.49h-9.487l5.61-32.018Zm6.659,11.9c.683-3.785-.639-5.564-3.148-5.564-2.28,0-4.241,2.189-4.789,5.382-.593,3.329.411,5.61,2.874,5.61,2.508,0,4.515-2.144,5.063-5.427" transform="translate(-76.891 -8.836)" fill="#313133"/>
        <path id="Path_5" data-name="Path 5" d="M294.989,26.6c8.438,0,12.771,4.971,11.449,12.405-1.551,8.757-8.209,12.861-15.872,12.861s-12.816-4.2-11.4-12.36c1.46-8.3,7.753-12.907,15.825-12.907M288.741,39.01c-.776,4.514.546,6.476,2.964,6.476,2.554,0,4.47-1.962,5.245-6.476.638-3.512-.456-6.158-2.964-6.021-3.239,0-4.789,3.33-5.245,6.021" transform="translate(-91.92 -8.767)" fill="#313133"/>
        <path id="Path_6" data-name="Path 6" d="M170.1,14.959l96.68-.267.009,3.243-98.038.27Z" transform="translate(-55.61 -4.842)" fill="#e50031"/>
        <path id="Path_7" data-name="Path 7" d="M254.5,70.332l43.116-.119.009,3.241-43.639.121Z" transform="translate(-83.7 -23.138)" fill="#e50031"/>
        <path id="Path_8" data-name="Path 8" d="M97.645,70.707l87.512-.243-.557,3.243-86.946.241Z" transform="translate(-32.178 -23.221)" fill="#e50031"/>
        <path id="Path_9" data-name="Path 9" d="M322.589,15.02a4.235,4.235,0,1,1-4.233-4.111,4.14,4.14,0,0,1,4.233,4.111m-7.412.021a3.192,3.192,0,0,0,3.226,3.282,3.156,3.156,0,0,0,3.131-3.275,3.181,3.181,0,1,0-6.357-.007m2.544,2.154-.956,0-.011-4.121a8.377,8.377,0,0,1,1.584-.129,2.575,2.575,0,0,1,1.433.3,1.146,1.146,0,0,1,.4.9,1.06,1.06,0,0,1-.853.959v.049a1.22,1.22,0,0,1,.758,1,3.14,3.14,0,0,0,.3,1.03l-1.032,0a3.585,3.585,0,0,1-.327-1.005c-.077-.453-.329-.653-.856-.652h-.453Zm.018-2.338h.453c.527,0,.954-.179.953-.606,0-.376-.278-.626-.881-.625a2.237,2.237,0,0,0-.528.052Z" transform="translate(-103.518 -3.595)" fill="#313133"/>
        <path id="Path_10" data-name="Path 10" d="M14.956,14.46a23.964,23.964,0,0,1,32.377-2.967L49.69,5.128a30.517,30.517,0,0,0-42.9,9.356l.669,0Z" transform="translate(-2.239 0)" fill="#313133" fill-rule="evenodd"/>
        <path id="Path_11" data-name="Path 11" d="M56.868,22.569,53.4,30.785A23.979,23.979,0,1,1,6.922,33.739l-6.629.019a30.516,30.516,0,1,0,60.742,4.113,30.361,30.361,0,0,0-4.168-15.3" transform="translate(0 -7.437)" fill="#313133" fill-rule="evenodd"/>
        <path id="Path_12" data-name="Path 12" d="M38.884,19.8l-7.621.021L24.785,37.232l-.126-17.394L3.646,19.9a30.239,30.239,0,0,0-2.631,7.415L16.3,27.268,17.857,48l9.067-.025,6.129-16.355.4,16.337,9.067-.025L55.756,16.088a30.7,30.7,0,0,0-6.078-6.381L39.206,37.192Z" transform="translate(-0.334 -3.199)" fill="#e50031" fill-rule="evenodd"/>
      </g>
    </g>
  </g>
</svg>
